# Blender 5.0.0
# www.blender.org
mtllib buttonPlane.mtl
o Cube
v -1.000000 -0.496301 0.000000
v -0.496300 -1.000000 0.000000
v -0.975347 -0.651952 0.000000
v -0.903802 -0.792368 0.000000
v -0.792368 -0.903802 0.000000
v -0.651952 -0.975347 0.000000
v -0.489405 1.000000 -0.000000
v -1.000000 0.489405 0.000000
v -0.647188 0.975010 0.000000
v -0.789525 0.902485 0.000000
v -0.902485 0.789525 0.000000
v -0.975010 0.647188 0.000000
v 0.488465 -1.000000 0.000000
v 1.000000 -0.488465 -0.000000
v 0.646538 -0.974964 -0.000000
v 0.789138 -0.902305 -0.000000
v 0.902306 -0.789138 -0.000000
v 0.974964 -0.646538 -0.000000
v 1.000000 0.488734 -0.000000
v 0.488734 1.000000 -0.000000
v 0.974977 0.646724 -0.000000
v 0.902357 0.789249 -0.000000
v 0.789249 0.902357 -0.000000
v 0.646724 0.974977 -0.000000
vn -0.0000 -0.0000 1.0000
vt 0.012424 0.174089
vt 0.951063 0.105510
vt 0.744318 0.999900
vt 0.255346 0.999900
vt 0.176471 0.987407
vt 0.105316 0.951152
vt 0.048848 0.894684
vt 0.012593 0.823529
vt 0.000100 0.744654
vt 0.000100 0.251899
vt 0.048189 0.103895
vt 0.103895 0.048189
vt 0.174089 0.012424
vt 0.251899 0.000100
vt 0.744184 0.000100
vt 0.823204 0.012616
vt 0.894490 0.048937
vt 0.987384 0.176796
vt 0.999900 0.255816
vt 0.999900 0.744318
vt 0.987391 0.823297
vt 0.951088 0.894545
vt 0.894546 0.951088
vt 0.823297 0.987391
s 1
usemtl Material.004
f 3/1/1 17/2/1 20/3/1
f 20/3/1 7/4/1 9/5/1
f 9/5/1 10/6/1 11/7/1
f 11/7/1 12/8/1 8/9/1
f 8/9/1 1/10/1 3/1/1
f 3/1/1 4/11/1 5/12/1
f 5/12/1 6/13/1 2/14/1
f 2/14/1 13/15/1 15/16/1
f 15/16/1 16/17/1 17/2/1
f 17/2/1 18/18/1 14/19/1
f 14/19/1 19/20/1 21/21/1
f 21/21/1 22/22/1 23/23/1
f 23/23/1 24/24/1 20/3/1
f 20/3/1 9/5/1 11/7/1
f 11/7/1 8/9/1 3/1/1
f 3/1/1 5/12/1 2/14/1
f 2/14/1 15/16/1 17/2/1
f 17/2/1 14/19/1 21/21/1
f 21/21/1 23/23/1 20/3/1
f 20/3/1 11/7/1 3/1/1
f 3/1/1 2/14/1 17/2/1
f 17/2/1 21/21/1 20/3/1
