# MagicaVoxel @ Ephtracy

# group
o 

# material
mtllib pickel.mtl
usemtl palette

# normals
vn -1 0 0
vn 1 0 0
vn 0 0 1
vn 0 0 -1
vn 0 -1 0
vn 0 1 0

# texcoords
vt 0.0253906 0.5
vt 0.0292969 0.5

# verts
v -0.8 0 0.2
v -0.8 0 -0.3
v -0.8 0.1 0.2
v -0.8 0.1 -0.3
v -0.7 0 0.7
v -0.7 0 0.5
v -0.7 0 0.4
v -0.7 0 0.2
v -0.7 0.1 0.7
v -0.7 0.1 0.5
v -0.7 0.1 0.4
v -0.7 0.1 0.2
v -0.6 0 0.5
v -0.6 0 0.4
v -0.6 0.1 0.5
v -0.6 0.1 0.4
v -0.4 0 0.7
v -0.4 0 0.6
v -0.4 0 0.3
v -0.4 0 0.2
v -0.4 0.1 0.7
v -0.4 0.1 0.6
v -0.4 0.1 0.3
v -0.4 0.1 0.2
v -0.3 0 0.2
v -0.3 0 0.1
v -0.3 0.1 0.2
v -0.3 0.1 0.1
v -0.2 0 0.8
v -0.2 0 0.7
v -0.2 0 0.1
v -0.2 0 0
v -0.2 0.1 0.8
v -0.2 0.1 0.7
v -0.2 0.1 0.1
v -0.2 0.1 0
v -0.1 0 0
v -0.1 0 -0.1
v -0.1 0.1 0
v -0.1 0.1 -0.1
v 0 0 -0.1
v 0 0 -0.2
v 0 0.1 -0.1
v 0 0.1 -0.2
v 0.1 0 -0.2
v 0.1 0 -0.3
v 0.1 0.1 -0.2
v 0.1 0.1 -0.3
v 0.2 0 -0.3
v 0.2 0 -0.4
v 0.2 0.1 -0.3
v 0.2 0.1 -0.4
v 0.3 0 -0.4
v 0.3 0 -0.5
v 0.3 0.1 -0.4
v 0.3 0.1 -0.5
v 0.4 0 -0.5
v 0.4 0 -0.6
v 0.4 0.1 -0.5
v 0.4 0.1 -0.6
v 0.5 0 -0.6
v 0.5 0 -0.8
v 0.5 0.1 -0.6
v 0.5 0.1 -0.8
v -0.6 0 0.1
v -0.6 0 -0.3
v -0.6 0.1 0.1
v -0.6 0.1 -0.3
v -0.5 0 0.7
v -0.5 0 0.6
v -0.5 0 0.3
v -0.5 0 0.1
v -0.5 0.1 0.7
v -0.5 0.1 0.6
v -0.5 0.1 0.3
v -0.5 0.1 0.1
v -0.3 0 0.5
v -0.3 0 0.4
v -0.3 0.1 0.5
v -0.3 0.1 0.4
v -0.2 0 0.4
v -0.2 0 0.3
v -0.2 0.1 0.4
v -0.2 0.1 0.3
v -0.1 0 0.6
v -0.1 0 0.5
v -0.1 0 0.3
v -0.1 0 0.2
v -0.1 0.1 0.6
v -0.1 0.1 0.5
v -0.1 0.1 0.3
v -0.1 0.1 0.2
v 0 0 0.2
v 0 0 0.1
v 0 0.1 0.2
v 0 0.1 0.1
v 0.1 0 0.1
v 0.1 0 0
v 0.1 0.1 0.1
v 0.1 0.1 0
v 0.2 0 0
v 0.2 0 -0.1
v 0.2 0.1 0
v 0.2 0.1 -0.1
v 0.3 0 0.8
v 0.3 0 0.6
v 0.3 0 -0.1
v 0.3 0 -0.2
v 0.3 0.1 0.8
v 0.3 0.1 0.6
v 0.3 0.1 -0.1
v 0.3 0.1 -0.2
v 0.4 0 -0.2
v 0.4 0 -0.3
v 0.4 0.1 -0.2
v 0.4 0.1 -0.3
v 0.5 0 -0.3
v 0.5 0 -0.4
v 0.5 0.1 -0.3
v 0.5 0.1 -0.4
v 0.6 0 -0.4
v 0.6 0 -0.5
v 0.6 0.1 -0.4
v 0.6 0.1 -0.5
v 0.8 0 -0.5
v 0.8 0 -0.8
v 0.8 0.1 -0.5
v 0.8 0.1 -0.8
v -0.2 0 0.8
v -0.2 0.1 0.8
v 0.3 0 0.8
v 0.3 0.1 0.8
v -0.7 0 0.7
v -0.7 0.1 0.7
v -0.5 0 0.7
v -0.5 0.1 0.7
v -0.4 0 0.7
v -0.4 0.1 0.7
v -0.2 0 0.7
v -0.2 0.1 0.7
v -0.5 0 0.6
v -0.5 0.1 0.6
v -0.4 0 0.6
v -0.4 0.1 0.6
v -0.7 0 0.4
v -0.7 0.1 0.4
v -0.6 0 0.4
v -0.6 0.1 0.4
v -0.3 0 0.4
v -0.3 0.1 0.4
v -0.2 0 0.4
v -0.2 0.1 0.4
v -0.2 0 0.3
v -0.2 0.1 0.3
v -0.1 0 0.3
v -0.1 0.1 0.3
v -0.8 0 0.2
v -0.8 0.1 0.2
v -0.7 0 0.2
v -0.7 0.1 0.2
v -0.1 0 0.2
v -0.1 0.1 0.2
v 0 0 0.2
v 0 0.1 0.2
v 0 0 0.1
v 0 0.1 0.1
v 0.1 0 0.1
v 0.1 0.1 0.1
v 0.1 0 0
v 0.1 0.1 0
v 0.2 0 0
v 0.2 0.1 0
v 0.2 0 -0.1
v 0.2 0.1 -0.1
v 0.3 0 -0.1
v 0.3 0.1 -0.1
v 0.3 0 -0.2
v 0.3 0.1 -0.2
v 0.4 0 -0.2
v 0.4 0.1 -0.2
v 0.4 0 -0.3
v 0.4 0.1 -0.3
v 0.5 0 -0.3
v 0.5 0.1 -0.3
v 0.5 0 -0.4
v 0.5 0.1 -0.4
v 0.6 0 -0.4
v 0.6 0.1 -0.4
v 0.6 0 -0.5
v 0.6 0.1 -0.5
v 0.8 0 -0.5
v 0.8 0.1 -0.5
v -0.1 0 0.6
v -0.1 0.1 0.6
v 0.3 0 0.6
v 0.3 0.1 0.6
v -0.7 0 0.5
v -0.7 0.1 0.5
v -0.6 0 0.5
v -0.6 0.1 0.5
v -0.3 0 0.5
v -0.3 0.1 0.5
v -0.1 0 0.5
v -0.1 0.1 0.5
v -0.5 0 0.3
v -0.5 0.1 0.3
v -0.4 0 0.3
v -0.4 0.1 0.3
v -0.4 0 0.2
v -0.4 0.1 0.2
v -0.3 0 0.2
v -0.3 0.1 0.2
v -0.6 0 0.1
v -0.6 0.1 0.1
v -0.5 0 0.1
v -0.5 0.1 0.1
v -0.3 0 0.1
v -0.3 0.1 0.1
v -0.2 0 0.1
v -0.2 0.1 0.1
v -0.2 0 0
v -0.2 0.1 0
v -0.1 0 0
v -0.1 0.1 0
v -0.1 0 -0.1
v -0.1 0.1 -0.1
v 0 0 -0.1
v 0 0.1 -0.1
v 0 0 -0.2
v 0 0.1 -0.2
v 0.1 0 -0.2
v 0.1 0.1 -0.2
v -0.8 0 -0.3
v -0.8 0.1 -0.3
v -0.6 0 -0.3
v -0.6 0.1 -0.3
v 0.1 0 -0.3
v 0.1 0.1 -0.3
v 0.2 0 -0.3
v 0.2 0.1 -0.3
v 0.2 0 -0.4
v 0.2 0.1 -0.4
v 0.3 0 -0.4
v 0.3 0.1 -0.4
v 0.3 0 -0.5
v 0.3 0.1 -0.5
v 0.4 0 -0.5
v 0.4 0.1 -0.5
v 0.4 0 -0.6
v 0.4 0.1 -0.6
v 0.5 0 -0.6
v 0.5 0.1 -0.6
v 0.5 0 -0.8
v 0.5 0.1 -0.8
v 0.8 0 -0.8
v 0.8 0.1 -0.8
v -0.2 0 0.8
v 0.3 0 0.8
v -0.7 0 0.7
v -0.5 0 0.7
v -0.4 0 0.7
v -0.2 0 0.7
v -0.6 0 0.6
v -0.5 0 0.6
v -0.4 0 0.6
v -0.1 0 0.6
v 0.3 0 0.6
v -0.7 0 0.5
v -0.6 0 0.5
v -0.3 0 0.5
v -0.1 0 0.5
v -0.7 0 0.4
v -0.6 0 0.4
v -0.3 0 0.4
v -0.2 0 0.4
v -0.5 0 0.3
v -0.4 0 0.3
v -0.3 0 0.3
v -0.2 0 0.3
v -0.1 0 0.3
v -0.8 0 0.2
v -0.7 0 0.2
v -0.4 0 0.2
v -0.3 0 0.2
v -0.1 0 0.2
v 0 0 0.2
v -0.6 0 0.1
v -0.5 0 0.1
v -0.3 0 0.1
v -0.2 0 0.1
v 0 0 0.1
v 0.1 0 0.1
v -0.2 0 0
v -0.1 0 0
v 0.1 0 0
v 0.2 0 0
v -0.1 0 -0.1
v 0 0 -0.1
v 0.2 0 -0.1
v 0.3 0 -0.1
v 0 0 -0.2
v 0.1 0 -0.2
v 0.3 0 -0.2
v 0.4 0 -0.2
v -0.8 0 -0.3
v -0.6 0 -0.3
v 0.1 0 -0.3
v 0.2 0 -0.3
v 0.4 0 -0.3
v 0.5 0 -0.3
v 0.2 0 -0.4
v 0.3 0 -0.4
v 0.5 0 -0.4
v 0.6 0 -0.4
v 0.3 0 -0.5
v 0.4 0 -0.5
v 0.6 0 -0.5
v 0.8 0 -0.5
v 0.4 0 -0.6
v 0.5 0 -0.6
v 0.6 0 -0.6
v 0.5 0 -0.8
v 0.8 0 -0.8
v -0.2 0.1 0.8
v 0.3 0.1 0.8
v -0.7 0.1 0.7
v -0.5 0.1 0.7
v -0.4 0.1 0.7
v -0.2 0.1 0.7
v -0.6 0.1 0.6
v -0.5 0.1 0.6
v -0.4 0.1 0.6
v -0.1 0.1 0.6
v 0.3 0.1 0.6
v -0.7 0.1 0.5
v -0.6 0.1 0.5
v -0.3 0.1 0.5
v -0.1 0.1 0.5
v -0.7 0.1 0.4
v -0.6 0.1 0.4
v -0.3 0.1 0.4
v -0.2 0.1 0.4
v -0.5 0.1 0.3
v -0.4 0.1 0.3
v -0.3 0.1 0.3
v -0.2 0.1 0.3
v -0.1 0.1 0.3
v -0.8 0.1 0.2
v -0.7 0.1 0.2
v -0.4 0.1 0.2
v -0.3 0.1 0.2
v -0.1 0.1 0.2
v 0 0.1 0.2
v -0.6 0.1 0.1
v -0.5 0.1 0.1
v -0.3 0.1 0.1
v -0.2 0.1 0.1
v 0 0.1 0.1
v 0.1 0.1 0.1
v -0.2 0.1 0
v -0.1 0.1 0
v 0.1 0.1 0
v 0.2 0.1 0
v -0.1 0.1 -0.1
v 0 0.1 -0.1
v 0.2 0.1 -0.1
v 0.3 0.1 -0.1
v 0 0.1 -0.2
v 0.1 0.1 -0.2
v 0.3 0.1 -0.2
v 0.4 0.1 -0.2
v -0.8 0.1 -0.3
v -0.6 0.1 -0.3
v 0.1 0.1 -0.3
v 0.2 0.1 -0.3
v 0.4 0.1 -0.3
v 0.5 0.1 -0.3
v 0.2 0.1 -0.4
v 0.3 0.1 -0.4
v 0.5 0.1 -0.4
v 0.6 0.1 -0.4
v 0.3 0.1 -0.5
v 0.4 0.1 -0.5
v 0.6 0.1 -0.5
v 0.8 0.1 -0.5
v 0.4 0.1 -0.6
v 0.5 0.1 -0.6
v 0.6 0.1 -0.6
v 0.5 0.1 -0.8
v 0.8 0.1 -0.8

# faces
f 3/1/1 2/1/1 1/1/1
f 4/1/1 2/1/1 3/1/1
f 9/2/1 6/2/1 5/2/1
f 10/2/1 6/2/1 9/2/1
f 11/1/1 8/1/1 7/1/1
f 12/1/1 8/1/1 11/1/1
f 15/1/1 14/1/1 13/1/1
f 16/1/1 14/1/1 15/1/1
f 21/1/1 18/1/1 17/1/1
f 22/1/1 18/1/1 21/1/1
f 23/2/1 20/2/1 19/2/1
f 24/2/1 20/2/1 23/2/1
f 27/2/1 26/2/1 25/2/1
f 28/2/1 26/2/1 27/2/1
f 33/1/1 30/1/1 29/1/1
f 34/1/1 30/1/1 33/1/1
f 35/2/1 32/2/1 31/2/1
f 36/2/1 32/2/1 35/2/1
f 39/2/1 38/2/1 37/2/1
f 40/2/1 38/2/1 39/2/1
f 43/2/1 42/2/1 41/2/1
f 44/2/1 42/2/1 43/2/1
f 47/2/1 46/2/1 45/2/1
f 48/2/1 46/2/1 47/2/1
f 51/2/1 50/2/1 49/2/1
f 52/2/1 50/2/1 51/2/1
f 55/2/1 54/2/1 53/2/1
f 56/2/1 54/2/1 55/2/1
f 59/2/1 58/2/1 57/2/1
f 60/2/1 58/2/1 59/2/1
f 63/1/1 62/1/1 61/1/1
f 64/1/1 62/1/1 63/1/1
f 65/1/2 66/1/2 67/1/2
f 67/1/2 66/1/2 68/1/2
f 69/2/2 70/2/2 73/2/2
f 73/2/2 70/2/2 74/2/2
f 71/1/2 72/1/2 75/1/2
f 75/1/2 72/1/2 76/1/2
f 77/1/2 78/1/2 79/1/2
f 79/1/2 78/1/2 80/1/2
f 81/2/2 82/2/2 83/2/2
f 83/2/2 82/2/2 84/2/2
f 85/1/2 86/1/2 89/1/2
f 89/1/2 86/1/2 90/1/2
f 87/2/2 88/2/2 91/2/2
f 91/2/2 88/2/2 92/2/2
f 93/2/2 94/2/2 95/2/2
f 95/2/2 94/2/2 96/2/2
f 97/2/2 98/2/2 99/2/2
f 99/2/2 98/2/2 100/2/2
f 101/2/2 102/2/2 103/2/2
f 103/2/2 102/2/2 104/2/2
f 105/1/2 106/1/2 109/1/2
f 109/1/2 106/1/2 110/1/2
f 107/2/2 108/2/2 111/2/2
f 111/2/2 108/2/2 112/2/2
f 113/2/2 114/2/2 115/2/2
f 115/2/2 114/2/2 116/2/2
f 117/2/2 118/2/2 119/2/2
f 119/2/2 118/2/2 120/2/2
f 121/2/2 122/2/2 123/2/2
f 123/2/2 122/2/2 124/2/2
f 125/1/2 126/1/2 127/1/2
f 127/1/2 126/1/2 128/1/2
f 131/1/3 130/1/3 129/1/3
f 132/1/3 130/1/3 131/1/3
f 135/2/3 134/2/3 133/2/3
f 136/2/3 134/2/3 135/2/3
f 139/1/3 138/1/3 137/1/3
f 140/1/3 138/1/3 139/1/3
f 143/1/3 142/1/3 141/1/3
f 144/1/3 142/1/3 143/1/3
f 147/1/3 146/1/3 145/1/3
f 148/1/3 146/1/3 147/1/3
f 151/2/3 150/2/3 149/2/3
f 152/2/3 150/2/3 151/2/3
f 155/2/3 154/2/3 153/2/3
f 156/2/3 154/2/3 155/2/3
f 159/1/3 158/1/3 157/1/3
f 160/1/3 158/1/3 159/1/3
f 163/2/3 162/2/3 161/2/3
f 164/2/3 162/2/3 163/2/3
f 167/2/3 166/2/3 165/2/3
f 168/2/3 166/2/3 167/2/3
f 171/2/3 170/2/3 169/2/3
f 172/2/3 170/2/3 171/2/3
f 175/2/3 174/2/3 173/2/3
f 176/2/3 174/2/3 175/2/3
f 179/2/3 178/2/3 177/2/3
f 180/2/3 178/2/3 179/2/3
f 183/2/3 182/2/3 181/2/3
f 184/2/3 182/2/3 183/2/3
f 187/2/3 186/2/3 185/2/3
f 188/2/3 186/2/3 187/2/3
f 191/1/3 190/1/3 189/1/3
f 192/1/3 190/1/3 191/1/3
f 193/1/4 194/1/4 195/1/4
f 195/1/4 194/1/4 196/1/4
f 197/2/4 198/2/4 199/2/4
f 199/2/4 198/2/4 200/2/4
f 201/1/4 202/1/4 203/1/4
f 203/1/4 202/1/4 204/1/4
f 205/1/4 206/1/4 207/1/4
f 207/1/4 206/1/4 208/1/4
f 209/2/4 210/2/4 211/2/4
f 211/2/4 210/2/4 212/2/4
f 213/1/4 214/1/4 215/1/4
f 215/1/4 214/1/4 216/1/4
f 217/2/4 218/2/4 219/2/4
f 219/2/4 218/2/4 220/2/4
f 221/2/4 222/2/4 223/2/4
f 223/2/4 222/2/4 224/2/4
f 225/2/4 226/2/4 227/2/4
f 227/2/4 226/2/4 228/2/4
f 229/2/4 230/2/4 231/2/4
f 231/2/4 230/2/4 232/2/4
f 233/1/4 234/1/4 235/1/4
f 235/1/4 234/1/4 236/1/4
f 237/2/4 238/2/4 239/2/4
f 239/2/4 238/2/4 240/2/4
f 241/2/4 242/2/4 243/2/4
f 243/2/4 242/2/4 244/2/4
f 245/2/4 246/2/4 247/2/4
f 247/2/4 246/2/4 248/2/4
f 249/2/4 250/2/4 251/2/4
f 251/2/4 250/2/4 252/2/4
f 253/1/4 254/1/4 255/1/4
f 255/1/4 254/1/4 256/1/4
f 262/1/5 258/1/5 257/1/5
f 263/2/5 260/2/5 259/2/5
f 264/2/5 260/2/5 263/2/5
f 265/1/5 262/1/5 261/1/5
f 266/1/5 258/1/5 262/1/5
f 266/1/5 262/1/5 265/1/5
f 267/1/5 258/1/5 266/1/5
f 268/2/5 263/2/5 259/2/5
f 269/1/5 264/1/5 263/1/5
f 269/2/5 263/2/5 268/2/5
f 269/1/5 265/1/5 264/1/5
f 269/1/5 266/1/5 265/1/5
f 270/1/5 266/1/5 269/1/5
f 271/1/5 266/1/5 270/1/5
f 273/1/5 270/1/5 269/1/5
f 274/1/5 270/1/5 273/1/5
f 276/1/5 273/1/5 272/1/5
f 276/1/5 274/1/5 273/1/5
f 277/1/5 274/1/5 276/1/5
f 278/2/5 275/2/5 274/2/5
f 278/1/5 274/1/5 277/1/5
f 279/2/5 275/2/5 278/2/5
f 282/1/5 276/1/5 272/1/5
f 283/2/5 280/2/5 279/2/5
f 283/2/5 279/2/5 278/2/5
f 283/2/5 278/2/5 277/2/5
f 284/2/5 280/2/5 283/2/5
f 285/2/5 280/2/5 284/2/5
f 287/1/5 282/1/5 281/1/5
f 287/1/5 276/1/5 282/1/5
f 288/1/5 276/1/5 287/1/5
f 289/2/5 285/2/5 284/2/5
f 289/2/5 286/2/5 285/2/5
f 290/2/5 286/2/5 289/2/5
f 291/2/5 286/2/5 290/2/5
f 293/2/5 292/2/5 291/2/5
f 293/2/5 291/2/5 290/2/5
f 294/2/5 292/2/5 293/2/5
f 295/2/5 292/2/5 294/2/5
f 297/2/5 296/2/5 295/2/5
f 297/2/5 295/2/5 294/2/5
f 298/2/5 296/2/5 297/2/5
f 299/2/5 296/2/5 298/2/5
f 301/2/5 300/2/5 299/2/5
f 301/2/5 299/2/5 298/2/5
f 302/2/5 300/2/5 301/2/5
f 303/2/5 300/2/5 302/2/5
f 305/1/5 287/1/5 281/1/5
f 306/1/5 287/1/5 305/1/5
f 307/2/5 303/2/5 302/2/5
f 307/2/5 304/2/5 303/2/5
f 308/2/5 304/2/5 307/2/5
f 309/2/5 304/2/5 308/2/5
f 311/2/5 310/2/5 309/2/5
f 311/2/5 309/2/5 308/2/5
f 312/2/5 310/2/5 311/2/5
f 313/2/5 310/2/5 312/2/5
f 315/2/5 314/2/5 313/2/5
f 315/2/5 313/2/5 312/2/5
f 316/2/5 314/2/5 315/2/5
f 317/2/5 314/2/5 316/2/5
f 319/2/5 317/2/5 316/2/5
f 320/2/5 317/2/5 319/2/5
f 321/1/5 318/1/5 317/1/5
f 321/2/5 317/2/5 320/2/5
f 322/1/5 321/1/5 320/1/5
f 323/1/5 318/1/5 321/1/5
f 323/1/5 321/1/5 322/1/5
f 324/1/6 325/1/6 329/1/6
f 326/2/6 327/2/6 330/2/6
f 330/2/6 327/2/6 331/2/6
f 328/1/6 329/1/6 332/1/6
f 329/1/6 325/1/6 333/1/6
f 332/1/6 329/1/6 333/1/6
f 333/1/6 325/1/6 334/1/6
f 326/2/6 330/2/6 335/2/6
f 330/1/6 331/1/6 336/1/6
f 335/2/6 330/2/6 336/2/6
f 331/1/6 332/1/6 336/1/6
f 332/1/6 333/1/6 336/1/6
f 336/1/6 333/1/6 337/1/6
f 337/1/6 333/1/6 338/1/6
f 336/1/6 337/1/6 340/1/6
f 340/1/6 337/1/6 341/1/6
f 339/1/6 340/1/6 343/1/6
f 340/1/6 341/1/6 343/1/6
f 343/1/6 341/1/6 344/1/6
f 341/2/6 342/2/6 345/2/6
f 344/1/6 341/1/6 345/1/6
f 345/2/6 342/2/6 346/2/6
f 339/1/6 343/1/6 349/1/6
f 346/2/6 347/2/6 350/2/6
f 345/2/6 346/2/6 350/2/6
f 344/2/6 345/2/6 350/2/6
f 350/2/6 347/2/6 351/2/6
f 351/2/6 347/2/6 352/2/6
f 348/1/6 349/1/6 354/1/6
f 349/1/6 343/1/6 354/1/6
f 354/1/6 343/1/6 355/1/6
f 351/2/6 352/2/6 356/2/6
f 352/2/6 353/2/6 356/2/6
f 356/2/6 353/2/6 357/2/6
f 357/2/6 353/2/6 358/2/6
f 358/2/6 359/2/6 360/2/6
f 357/2/6 358/2/6 360/2/6
f 360/2/6 359/2/6 361/2/6
f 361/2/6 359/2/6 362/2/6
f 362/2/6 363/2/6 364/2/6
f 361/2/6 362/2/6 364/2/6
f 364/2/6 363/2/6 365/2/6
f 365/2/6 363/2/6 366/2/6
f 366/2/6 367/2/6 368/2/6
f 365/2/6 366/2/6 368/2/6
f 368/2/6 367/2/6 369/2/6
f 369/2/6 367/2/6 370/2/6
f 348/1/6 354/1/6 372/1/6
f 372/1/6 354/1/6 373/1/6
f 369/2/6 370/2/6 374/2/6
f 370/2/6 371/2/6 374/2/6
f 374/2/6 371/2/6 375/2/6
f 375/2/6 371/2/6 376/2/6
f 376/2/6 377/2/6 378/2/6
f 375/2/6 376/2/6 378/2/6
f 378/2/6 377/2/6 379/2/6
f 379/2/6 377/2/6 380/2/6
f 380/2/6 381/2/6 382/2/6
f 379/2/6 380/2/6 382/2/6
f 382/2/6 381/2/6 383/2/6
f 383/2/6 381/2/6 384/2/6
f 383/2/6 384/2/6 386/2/6
f 386/2/6 384/2/6 387/2/6
f 384/1/6 385/1/6 388/1/6
f 387/2/6 384/2/6 388/2/6
f 387/1/6 388/1/6 389/1/6
f 388/1/6 385/1/6 390/1/6
f 389/1/6 388/1/6 390/1/6
